<?xml version="1.0" encoding="utf-8"?>
<!-- Generator: Adobe Illustrator 25.2.1, SVG Export Plug-In . SVG Version: 6.00 Build 0)  -->
<svg version="1.1"
	 id="svg3476" sodipodi:docname="CSS3.svg" xmlns:cc="http://creativecommons.org/ns#" xmlns:dc="http://purl.org/dc/elements/1.1/" xmlns:inkscape="http://www.inkscape.org/namespaces/inkscape" xmlns:rdf="http://www.w3.org/1999/02/22-rdf-syntax-ns#" xmlns:sodipodi="http://sodipodi.sourceforge.net/DTD/sodipodi-0.dtd" xmlns:svg="http://www.w3.org/2000/svg"
	 xmlns="http://www.w3.org/2000/svg" xmlns:xlink="http://www.w3.org/1999/xlink" x="0px" y="0px" viewBox="0 0 290.19 409.6"
	 style="enable-background:new 0 0 290.19 409.6;" xml:space="preserve">
<style type="text/css">
	.st0{fill:#264DE4;}
	.st1{fill:#2965F1;}
	.st2{fill:#EBEBEB;}
	.st3{fill:#838382;}
	.st4{fill:#FFFFFF;}
</style>
<sodipodi:namedview  bordercolor="#666666" borderopacity="1.0" fit-margin-bottom="0" fit-margin-left="0" fit-margin-right="0" fit-margin-top="0" id="base" inkscape:current-layer="layer1" inkscape:cx="181.367" inkscape:cy="256" inkscape:document-units="px" inkscape:pageopacity="0.0" inkscape:pageshadow="2" inkscape:window-height="704" inkscape:window-maximized="1" inkscape:window-width="1366" inkscape:window-x="0" inkscape:window-y="27" inkscape:zoom="0.35" pagecolor="#ffffff" showgrid="false">
	</sodipodi:namedview>
<polygon id="polygon2989" class="st0" points="290.19,80.5 263.75,376.66 144.92,409.6 26.41,376.7 0,80.5 "/>
<polygon id="polygon2991" class="st1" points="241.12,357.8 263.71,104.72 145.09,104.72 145.09,384.42 "/>
<polygon id="polygon2993" class="st2" points="60.54,214.57 63.8,250.9 145.09,250.9 145.09,214.57 "/>
<polygon id="polygon2995" class="st2" points="145.09,141.04 144.97,141.04 54,141.04 57.3,177.37 145.09,177.37 "/>
<polygon id="polygon2997" class="st2" points="145.09,346.72 145.09,308.92 144.93,308.96 104.48,298.04 101.89,269.07 
	82.23,269.07 65.42,269.07 70.51,326.11 144.93,346.77 "/>
<path id="path2999" inkscape:connector-curvature="0" class="st3" d="M68.29,0h44v18.4h-25.6v18.4h25.6v18.4h-44V0z"/>
<path id="path3001" inkscape:connector-curvature="0" class="st3" d="M121.09,0h44v16h-25.6v3.2h25.6V56h-44V39.2h25.6V36h-25.6V0z"
	/>
<path id="path3003" inkscape:connector-curvature="0" class="st3" d="M173.89,0h44v16h-25.6v3.2h25.6V56h-44V39.2h25.6V36h-25.6V0z"
	/>
<polygon id="polygon3005" class="st4" points="189.7,250.9 185.49,298.02 144.97,308.95 144.97,346.75 219.44,326.11 219.99,319.97 
	228.53,224.33 229.41,214.57 235.97,141.04 144.97,141.04 144.97,177.37 196.16,177.37 192.85,214.57 144.97,214.57 144.97,250.9 
	"/>
</svg>
