<?xml version="1.0" encoding="utf-8"?>
<!-- Generator: Adobe Illustrator 25.2.1, SVG Export Plug-In . SVG Version: 6.00 Build 0)  -->
<svg version="1.1" id="Capa_1" xmlns="http://www.w3.org/2000/svg" xmlns:xlink="http://www.w3.org/1999/xlink" x="0px" y="0px"
	 viewBox="0 0 240 240" style="enable-background:new 0 0 240 240;" xml:space="preserve">
<style type="text/css">
	.st0{fill:#FFFFFF;}
</style>
<circle cx="120" cy="120" r="114.8"/>
<path class="st0" d="M96.11,5.66c-31.68,7.06-57.65,24.62-75.52,51.21c-31.27,46.85-25.04,109.7,14.86,149.8
	c11.95,12.05,30.13,23.68,43.84,28.15c5.09,1.66,5.71,1.66,8,0.1c2.49-1.66,2.6-2.08,2.6-14.02v-12.26l-9.14,0.52
	c-10.7,0.52-19.01-1.35-24-5.61c-1.77-1.45-5.19-6.44-7.58-11.01c-3.95-7.69-6.86-11.22-14.96-18.39c-2.7-2.39-2.8-2.49-0.93-3.84
	c4.47-3.32,13.5-0.1,19.22,6.75c9.97,12.15,13.82,15.37,19.53,16.62c5.09,1.04,9.76,0.62,16.83-1.45c0.93-0.31,2.18-2.49,2.8-4.99
	c0.62-2.39,2.29-6.03,3.64-8l2.49-3.64l-8.41-1.66c-17.66-3.64-28.57-9.97-35.74-20.78c-6.65-9.97-8.83-18.59-8.93-34.7
	c0-15.17,1.66-21.4,8.21-29.92c2.91-3.74,3.22-4.88,2.39-7.06c-1.56-3.74-1.14-19.53,0.52-24.31c1.35-3.53,2.08-4.16,4.88-4.47
	c4.67-0.52,13.4,2.49,22.23,7.48l7.58,4.36L97.15,63c9.45-2.18,37.81-2.08,46.33,0l6.44,1.66l6.03-3.64
	c8-4.78,18.18-8.52,23.27-8.52c4.05,0,4.05,0.1,5.71,5.4c1.77,6.13,2.08,17.24,0.52,22.54c-0.83,3.12-0.62,4.05,1.66,7.06
	c11.32,14.96,12.57,39.79,3.01,60.15c-6.44,13.4-20.05,22.75-38.33,26.18l-8.73,1.66l3.22,5.71l3.32,5.82l0.31,23.17l0.42,23.17
	l2.6,1.66c2.39,1.56,2.91,1.56,7.9-0.21c8.31-2.8,22.54-10.49,30.33-16.41c46.33-34.7,61.29-96.92,35.63-148.65
	c-15.06-30.44-43.53-53.81-76.15-62.54C136.41,3.48,109.61,2.65,96.11,5.66z"/>
</svg>
