<?xml version="1.0" encoding="utf-8"?>
<!-- Generator: Adobe Illustrator 25.2.1, SVG Export Plug-In . SVG Version: 6.00 Build 0)  -->
<svg version="1.1" id="Capa_1" xmlns="http://www.w3.org/2000/svg" xmlns:xlink="http://www.w3.org/1999/xlink" x="0px" y="0px"
	 viewBox="0 0 184.25 184.25" style="enable-background:new 0 0 184.25 184.25;" xml:space="preserve">
<style type="text/css">
	.st0{fill:#FFFFFF;}
	.st1{fill:#FBA820;}
	.st2{fill:#9ABAC9;}
	.st3{fill:#1E1816;}
</style>
<g>
	<g>
		<path class="st0" d="M147.62,113.13c-0.36-0.4-0.73,0.03-1.06,0.25c-0.76,0.48-1.53,0.97-2.26,1.5c-0.94,0.66-1.55,0.64-2.11-0.53
			c-0.48-0.94-0.86-2.01-1.86-2.89c-0.15,1.34,0.54,2.26,0.91,3.22c0.41,1.17,0.28,1.81-0.92,2.34c-2.44,1.11-4.87,2.21-7.38,3.15
			c-0.81,0.31-1.3,0.33-1.63-0.73c-0.38-1.24-1.07-2.38-1.63-3.55c-0.16-0.33-0.38-0.73-0.76-0.59c-0.59,0.21-0.23,0.69-0.13,1.04
			c0.31,1.06,0.64,2.13,1.01,3.17c0.41,1.16,0.21,1.85-1.12,2.19c-2.44,0.63-4.87,1.29-7.36,1.75c-0.89,0.18-1.14-0.17-1.34-0.91
			c-0.07-0.25-0.13-0.49-0.21-0.74c-0.05-0.23-0.12-0.46-0.18-0.68c-0.3-1.04-0.64-2.05-1.11-3.02c-0.18-0.4-0.25-0.92-0.99-0.89
			c0.38,1.45,0.73,2.87,1.14,4.29c0.07,0.26,0.13,0.51,0.21,0.78c0.02,0.05,0.03,0.12,0.05,0.17c0.35,1.12,0,1.52-1.14,1.62
			c-0.08,0-0.15,0.02-0.23,0.02c-0.38,0.03-0.76,0.07-1.16,0.1c-1.11,0.08-2.23,0.18-3.35,0.25c-0.84,0.05-1.68,0.08-2.52,0.08
			c-0.53-0.02-0.83-0.08-0.97-0.48c-0.05-0.15-0.1-0.36-0.12-0.63c-0.23-2.72-0.94-5.36-1.83-7.95c-0.05-0.18-0.16-0.36-0.64-0.25
			c0.23,1.67,0.5,3.37,0.69,5.08c0.05,0.38,0.08,0.76,0.12,1.14v0.05c0.05,0.71,0.08,1.42,0.13,2.13c0.05,0.63-0.18,0.94-0.86,0.91
			c-1.27-0.07-2.52-0.16-3.78-0.31c-0.76-0.07-1.52-0.17-2.28-0.26c-0.18-0.2-0.25-0.54-0.2-1.07c0.13-1.83,0.02-3.68-0.56-5.46
			c-0.36,1.68-0.18,3.4-0.56,5.07c-0.13,0.59-0.33,0.97-0.66,1.16c-1.45-0.23-2.9-0.54-4.36-0.91c-0.02,0-0.02,0-0.03-0.02
			c-0.1-0.03-0.2-0.07-0.3-0.12h-0.03l-0.13-0.07c-0.2-0.08-0.35-0.17-0.45-0.25c-0.28-0.23-0.2-0.5,0.28-0.89
			c1.06-0.84,2.11-1.72,3.1-2.66c0.43-0.4,1.5-0.69,0.97-1.39c-0.33-0.41-1.07,0.43-1.58,0.78c-0.68,0.5-1.3,1.06-1.96,1.62
			c-0.64,0.53-1.32,1.06-2.11,1.5l-0.05,0.03l-0.41,0.31l-0.36-0.28c-0.02-0.02-0.02-0.02-0.03-0.03c-1.67-1.6-3.05-3.14-4.92-4.13
			c0.36,0.74,0.79,1.42,1.27,2.08c0.68,0.94,1.45,1.83,2.23,2.77c0.02,0.03,0.03,0.05,0.07,0.08l0.45,0.56
			c-0.46,0.18-0.91,0.36-1.37,0.53c-4.13,1.53-8.25,2.56-12.47,3.23c-0.68,0.12-0.92-0.18-0.94-0.81c-0.05-0.87-0.1-1.73-0.1-2.61
			c-0.02-0.25-0.02-0.48-0.02-0.71c0.02-1.72,0.08-3.45,0.15-5.13c-0.5-0.07-0.58,0.13-0.63,0.31c-0.61,2.67-1.02,5.38-0.96,8.1v0.1
			c0,0.87-0.25,1.02-0.97,1.12c-0.16,0.02-0.35,0.03-0.51,0.05c-1.7,0.17-3.43,0.2-5.15,0.23c-0.38,0.02-0.74,0.03-1.12,0.03
			c-0.16,0-0.31,0.02-0.48,0.02c-1.14,0.03-1.53-0.33-1.32-1.49c0.05-0.21,0.08-0.43,0.12-0.64c0.05-0.28,0.1-0.56,0.15-0.82
			c0.21-1.29,0.4-2.57,0.59-3.88c-0.76,0.05-0.76,0.58-0.91,0.99c-0.31,0.87-0.51,1.77-0.69,2.66c-0.03,0.23-0.08,0.46-0.12,0.69
			c-0.07,0.41-0.13,0.81-0.2,1.22c-0.12,0.76-0.31,1.14-1.24,1.06c-2.52-0.2-5-0.59-7.49-0.96c-1.37-0.2-1.65-0.86-1.37-2.05
			c0.26-1.09,0.48-2.18,0.68-3.27c0.05-0.35,0.36-0.87-0.25-1.01c-0.4-0.1-0.56,0.31-0.69,0.66c-0.43,1.22-1.01,2.44-1.24,3.7
			c-0.21,1.11-0.73,1.12-1.55,0.91c-2.61-0.66-5.13-1.52-7.67-2.34c-1.25-0.4-1.45-1.02-1.17-2.23c0.25-1.01,0.84-1.98,0.56-3.3
			c-0.91,0.99-1.17,2.08-1.53,3.07c-0.45,1.22-1.06,1.32-2.05,0.76c-0.79-0.45-1.6-0.86-2.41-1.25c-0.35-0.18-0.78-0.56-1.09-0.13
			c-0.4,0.53,0.18,0.86,0.51,1.07c1.29,0.86,2.64,1.67,3.96,2.49c0.3,0.07,0.36,0.21,0.2,0.46v0.38c0.31,0.45,0.35,0.89,0.07,1.37
			c0.2,0.97,0.38,1.95,0.58,2.92c0.25,0.3,0.48,0.58,0.73,0.86c0.49-0.41,0.16-0.94,0.12-1.4c-0.07-0.91-0.21-1.82-0.23-2.71
			c-0.02-0.79,0.21-1.2,1.19-0.76c2.61,1.19,5.38,2,8.15,2.71c1.09,0.28,1.65,0.66,1.67,1.86c0,0.94,0.13,1.93,0.68,2.76
			c0.28,0.43,0.38,1.35,0.97,1.16c0.76-0.26,0.05-1.04,0.12-1.58c-0.41-0.59-0.46-1.25-0.28-1.95c-0.02-0.08-0.02-0.17,0.02-0.25
			c0.05-0.5-0.46-1.37,0.73-1.14c2.82,0.53,5.68,0.91,8.55,1.07c0.54,0.03,0.87,0.26,0.91,0.79c0.07,1.39,0.68,2.62,0.99,3.93
			c0.21,0.36,0.51,0.78,0.92,0.59c0.5-0.23,0.1-0.71,0.03-1.07c-0.15-0.99-0.71-1.88-0.63-2.92c-0.58-0.86-0.38-1.34,0.68-1.29
			c0.53,0.03,1.06,0.03,1.57,0.02c0.4,0.02,0.78,0,1.17-0.03c1.86-0.08,3.7-0.35,5.54-0.54c0.68-0.08,1.06,0.15,1.22,0.79
			c0.21,0.87,0.43,1.75,0.66,2.62c0.4,0.43,0.58,1.44,1.32,1.04c0.64-0.33-0.1-1.02-0.17-1.55c-0.03-0.2-0.12-0.4-0.16-0.58
			c-0.02-0.05-0.03-0.08-0.05-0.13c-0.16-0.48-0.31-0.96-0.49-1.42c-0.25-0.64-0.12-0.96,0.45-1.11c0.1-0.03,0.2-0.07,0.31-0.08
			c1.67-0.3,3.32-0.66,4.93-1.14c1.52-0.43,3-0.96,4.49-1.55c0.31-0.13,0.64-0.31,1.16-0.07c0.02,0,0.03,0,0.05,0.02
			c-0.79,0.61-1.5,1.07-2.1,1.65c-0.07,0.07-0.13,0.12-0.2,0.17c-0.3,0.23-0.63,0.41-0.89,0.66c-0.28,0.25-0.48,0.56-0.43,1.06
			c0.3-0.1,0.58-0.21,0.86-0.35c0.36-0.16,0.71-0.36,1.04-0.58c0.68-0.43,1.34-0.92,2.01-1.44c0.87-0.66,1.8-1.34,2.87-1.88
			l0.81-0.15l0.13-0.02c0.18,0.86,0.64,1.09,0.99,1.42c1.19,1.17,2.38,2.33,3.23,3.76c0.18,0.31-0.45,1.17,0.49,1.01
			c0.59-0.1,1.65,0.2,1.58-1.09c-0.03-0.56,0.45-0.99,0.81-1.4c0.12-0.18,0.21-0.38,0.3-0.58c0.1-0.21,0.18-0.45,0.31-0.66
			c0.23-0.46,0.58-0.84,1.3-0.81c1.29,0.07,2.56,0.02,3.84-0.08c0.69,0.08,1.37,0.15,2.06,0.2c0.2,0.02,0.38,0.03,0.51,0.08
			c0.43,0.13,0.54,0.43,0.38,1.01c-0.13,0.5-0.23,0.97-0.33,1.47c-0.05,0.23-0.13,0.48-0.13,0.73c0,0.07-0.02,0.13-0.03,0.2
			c-0.12,0.51-0.56,1.14,0.03,1.37c0.78,0.31,0.84-0.71,1.2-1.19c0.12-0.89,0.23-1.78,0.36-2.67c0.08-0.66,0.45-0.92,1.12-0.92
			c1.95,0,3.89,0.07,5.82-0.05c0.4-0.02,0.78-0.05,1.16-0.1c0.45-0.05,0.87-0.1,1.32-0.18c1.04-0.17,1.3,0.3,0.81,1.2
			c0.2,1.02-0.26,1.98-0.31,2.99c-0.02,0.36-0.36,0.87,0.15,1.06c0.43,0.13,0.69-0.31,0.87-0.69c0.15-1.34,0.63-2.62,0.56-4.01
			c-0.03-0.53,0.26-0.81,0.81-0.89c2.84-0.48,5.63-1.16,8.38-1.98c1.16-0.35,0.73,0.56,0.84,1.06c0.03,0.07,0.05,0.15,0.03,0.25
			c0.26,0.66,0.3,1.32-0.07,1.96c0.13,0.53-0.49,1.37,0.28,1.55c0.63,0.15,0.61-0.79,0.86-1.25c0.45-0.87,0.48-1.88,0.38-2.81
			c-0.12-1.19,0.4-1.63,1.45-2.03c2.67-1.01,5.33-2.11,7.82-3.56c0.91-0.54,1.19-0.18,1.25,0.61c0.07,0.91,0.02,1.82,0.05,2.72
			c0.02,0.48-0.26,1.02,0.28,1.39c0.21-0.3,0.41-0.61,0.63-0.92c0.08-0.99,0.16-1.98,0.26-2.97c-0.33-0.45-0.36-0.89-0.1-1.37
			c0-0.13-0.02-0.25-0.02-0.38c-0.21-0.23-0.15-0.38,0.13-0.48c1.22-0.96,2.48-1.9,3.68-2.9C147.54,114,148.09,113.61,147.62,113.13
			z M98.6,126.07c-0.03,0.07-0.07,0.17-0.1,0.25c-0.12,0.23-0.21,0.45-0.31,0.61c-0.61,1.11-0.96,0.96-2.03-0.36
			c-0.38-0.48-0.79-0.94-1.25-1.47c-0.21-0.25-0.43-0.5-0.68-0.78c1.25,0.38,2.26,0.71,3.25,1.01c0.21,0.07,0.43,0.12,0.64,0.18
			C98.57,125.62,98.7,125.74,98.6,126.07z"/>
	</g>
	<g>
		<path class="st0" d="M32.98,50.58c-0.37,1.84-0.87,7.21-1.51,16.11c-0.74,8.54-2.02,14.46-3.86,17.76
			c-0.18,0.37-0.41,0.73-0.69,1.1c-1.19,4.41-2.66,7.62-4.41,9.64c-0.46,0.46-1.2,0.92-2.2,1.38c-0.28,0.09-0.6,0.23-0.96,0.41
			c3.39,1.93,6.15,4.91,8.26,8.95c1.65,3.03,2.57,7.16,2.75,12.39v6.61v6.61c0.09,1.65,0.23,3.12,0.41,4.41
			c1.84,2.66,5.28,4.96,10.33,6.88c1.47,0.55,3.49,1.19,6.06,1.93c0.09,0,0.18,0.04,0.28,0.14h0.55c0.37,0.09,0.6,0.18,0.69,0.27
			c0.37,0.19,0.55,0.46,0.55,0.83c0.09,0.37,0,0.64-0.28,0.82c-0.64,0.55-1.56,0.92-2.75,1.1c-1.01,0.28-2.2,0.41-3.58,0.41h-0.83
			c1.29,0.46,2.71,0.78,4.27,0.96c0.64,0.09,0.92,0.46,0.83,1.1s-0.46,0.92-1.1,0.83l-2.75-0.55c0.28,0.28,0.36,0.59,0.28,0.97
			c-0.19,0.64-0.6,0.87-1.24,0.69c-3.95-1.29-6.98-3.21-9.09-5.78c-2.94-2.11-5.14-6.11-6.61-11.98c-0.28-1.1-0.51-2.25-0.69-3.44
			c-0.09-0.37-0.78-4.18-2.07-11.43c-1.01-5.51-2.25-9.82-3.72-12.95c-0.74-1.47-1.81-2.96-3.24-4.47c-1.43-1.51-2.82-2.5-4.2-2.96
			h-0.14h-0.41c-0.64-0.09-1.1-0.14-1.38-0.14c-0.64,0-1.15-0.04-1.52-0.13c-0.27-0.09-0.5-0.14-0.69-0.14
			c-0.37-0.19-0.6-0.41-0.69-0.69c-0.37-0.64-0.28-1.24,0.28-1.79c0.09-0.09,0.18-0.14,0.27-0.14v-0.28c0-0.28,0.14-0.5,0.41-0.69
			c0.09-0.19,0.32-0.32,0.69-0.41l0.14-0.14h0.28h0.14c1.74-1.01,3.44-2.16,5.09-3.44l0.96-1.24c3.3-4.31,5.73-9.73,7.3-16.25
			c0.37-1.29,1.1-5.23,2.2-11.84l0.96-5.09c-0.28-3.12-0.23-5.74,0.14-7.85c0.55-3.86,2.06-7.25,4.54-10.19
			c2.48-2.94,5.37-4.73,8.68-5.37c1.93-0.92,4.13-1.47,6.61-1.65c0.64,0,0.96,0.32,0.96,0.96c0,0.64-0.32,0.97-0.96,0.97h-0.41
			c0.64,0.19,1.28,0.46,1.93,0.82c0.28,0.09,0.46,0.32,0.55,0.69c1.65,0.09,2.98,0.69,3.99,1.79c0.46,0.55,0.44,1.03-0.07,1.45
			c-0.5,0.41-0.94,0.39-1.31-0.07c-0.64-0.83-1.52-1.24-2.62-1.24h-0.28c-1.38,0-2.66,0.14-3.86,0.41
			C39.22,41.49,35.45,45.81,32.98,50.58z M14.8,95.06c0-0.28,0.05-0.55,0.14-0.83c-0.55,0.55-1.1,1.06-1.65,1.51h0.41
			C14.06,95.56,14.43,95.33,14.8,95.06z M19.34,91.75l-1.79,2.89c-0.28,0.37-0.55,0.69-0.83,0.97H17c1.01-0.28,1.88-0.55,2.62-0.83
			c0.74-0.37,1.24-0.69,1.52-0.96c1.1-1.29,2.11-3.17,3.03-5.65c-0.46,0.28-1.03,0.66-1.72,1.17c-0.69,0.5-1.13,0.81-1.31,0.9
			C20.4,90.79,19.8,91.29,19.34,91.75z M17.28,98.64c0.64,0.37,1.24,0.73,1.79,1.1c-0.28-0.46-0.6-0.82-0.96-1.1h-0.69H17.28z
			 M25.13,84.73l0.28-1.38c-0.74,1.1-1.61,2.2-2.62,3.31C23.8,85.92,24.58,85.28,25.13,84.73z M23.2,103.18
			c1.84,2.2,2.94,5.05,3.31,8.54c0.18,1.29,0.27,3.12,0.27,5.51c0.18,0.92,0.32,1.98,0.41,3.17l0.41,2.89
			c0.18,1.29,0.32,2.43,0.41,3.44c0.09,1.01,0.23,1.97,0.41,2.89v-5.65v-5.64c-0.18-4.96-1.01-8.81-2.48-11.57
			c-0.74-1.38-1.74-2.8-3.03-4.27L23.2,103.18z M27.47,68.2c-1.1,4.68-2.16,8.58-3.17,11.7c-0.37,1.2-0.78,2.34-1.24,3.44
			c1.47-1.92,2.52-3.8,3.17-5.64C27.24,75.14,27.65,71.97,27.47,68.2z M31.05,50.16c0.09-0.46,0.23-0.91,0.41-1.38
			c0.09-0.28,0.14-0.55,0.14-0.82c2.11-7.89,6.24-12.12,12.39-12.67c-1.29-0.19-2.53-0.14-3.72,0.14c-4.32,2.2-7.62,6.79-9.91,13.77
			c-0.74,2.2-1.42,4.82-2.06,7.85C29.12,54.48,30.04,52.19,31.05,50.16z M32.01,40.8c-1.65,2.2-2.8,4.68-3.44,7.43
			C29.58,45.39,30.73,42.91,32.01,40.8z M29.4,60.49l-0.55,1.93l0.14,1.24l0.14-0.55L29.4,60.49z M45.09,146.28
			c-1.84-0.55-3.35-1.06-4.54-1.51c-3.03-1.19-5.32-2.3-6.89-3.31c2.2,2.11,5.32,3.58,9.36,4.41c0.36,0.09,0.59,0.28,0.69,0.55
			C44.18,146.32,44.63,146.28,45.09,146.28z M37.8,146.28c-1.1-0.46-2.11-0.97-3.03-1.51l1.93,1.38h0.14
			C37.11,146.23,37.43,146.28,37.8,146.28z"/>
	</g>
	<g>
		<path class="st0" d="M151.44,133.8c0.36-1.83,0.87-7.16,1.5-16.01c0.73-8.48,2.01-14.37,3.83-17.65c0.18-0.36,0.41-0.73,0.68-1.09
			c1.19-4.38,2.65-7.57,4.38-9.58c0.46-0.45,1.19-0.91,2.19-1.37c0.27-0.09,0.6-0.23,0.96-0.41c-3.37-1.92-6.11-4.88-8.21-8.89
			c-1.64-3.01-2.55-7.11-2.74-12.31v-6.57v-6.57c-0.09-1.64-0.23-3.1-0.41-4.38c-1.82-2.64-5.24-4.92-10.26-6.84
			c-1.46-0.54-3.47-1.18-6.02-1.92c-0.09,0-0.18-0.04-0.27-0.14h-0.55c-0.36-0.09-0.59-0.18-0.68-0.27
			c-0.36-0.18-0.55-0.46-0.55-0.82c-0.09-0.36,0-0.64,0.27-0.82c0.64-0.55,1.55-0.91,2.74-1.1c1-0.27,2.19-0.41,3.56-0.41h0.82
			c-1.28-0.45-2.69-0.77-4.24-0.96c-0.64-0.09-0.91-0.45-0.82-1.09s0.46-0.91,1.09-0.82l2.74,0.55c-0.27-0.27-0.36-0.59-0.27-0.96
			c0.18-0.63,0.6-0.87,1.23-0.68c3.92,1.28,6.93,3.19,9.03,5.74c2.92,2.1,5.11,6.07,6.57,11.91c0.27,1.09,0.5,2.23,0.68,3.42
			c0.09,0.36,0.78,4.15,2.05,11.35c1,5.47,2.24,9.76,3.69,12.86c0.73,1.46,1.8,2.94,3.21,4.44c1.42,1.5,2.81,2.49,4.17,2.94h0.14
			h0.41c0.64,0.09,1.09,0.14,1.37,0.14c0.64,0,1.14,0.04,1.51,0.13c0.27,0.09,0.5,0.14,0.68,0.14c0.36,0.18,0.59,0.41,0.68,0.69
			c0.37,0.64,0.27,1.23-0.27,1.78c-0.09,0.09-0.18,0.14-0.27,0.14v0.27c0,0.27-0.14,0.5-0.41,0.68c-0.09,0.18-0.32,0.32-0.68,0.41
			l-0.14,0.14h-0.27h-0.14c-1.73,1-3.42,2.14-5.06,3.42l-0.96,1.23c-3.28,4.29-5.7,9.67-7.25,16.14c-0.36,1.28-1.09,5.2-2.19,11.76
			l-0.96,5.06c0.27,3.1,0.23,5.7-0.14,7.8c-0.55,3.83-2.05,7.2-4.51,10.12c-2.46,2.92-5.34,4.7-8.62,5.34
			c-1.91,0.91-4.1,1.46-6.57,1.64c-0.64,0-0.96-0.32-0.96-0.96c0-0.64,0.32-0.96,0.96-0.96h0.41c-0.64-0.18-1.27-0.45-1.91-0.82
			c-0.27-0.09-0.46-0.32-0.55-0.69c-1.64-0.09-2.96-0.68-3.97-1.78c-0.46-0.54-0.43-1.02,0.07-1.44c0.5-0.41,0.94-0.39,1.3,0.07
			c0.64,0.82,1.51,1.23,2.6,1.23h0.27c1.37,0,2.65-0.14,3.83-0.41C145.24,142.83,148.98,138.54,151.44,133.8z M139.4,38.71
			c1.82,0.55,3.33,1.05,4.51,1.5c3.01,1.19,5.29,2.28,6.84,3.29c-2.19-2.1-5.29-3.56-9.3-4.38c-0.36-0.09-0.59-0.27-0.68-0.55
			C140.31,38.67,139.86,38.71,139.4,38.71z M153.36,134.21c-0.09,0.45-0.23,0.91-0.41,1.37c-0.09,0.27-0.14,0.55-0.14,0.82
			c-2.1,7.84-6.2,12.04-12.31,12.59c1.28,0.18,2.51,0.14,3.69-0.14c4.29-2.19,7.57-6.75,9.85-13.68c0.73-2.19,1.41-4.79,2.05-7.8
			C155.27,129.92,154.36,132.2,153.36,134.21z M146.65,38.71c1.09,0.46,2.1,0.96,3.01,1.5l-1.92-1.37h-0.14
			C147.34,38.76,147.02,38.71,146.65,38.71z M152.4,143.51c1.64-2.19,2.78-4.65,3.42-7.38C154.82,138.95,153.68,141.41,152.4,143.51
			z M155,123.95l0.55-1.92l-0.14-1.23l-0.14,0.55L155,123.95z M161.16,81.53c-1.82-2.19-2.92-5.02-3.28-8.48
			c-0.18-1.28-0.27-3.1-0.27-5.47c-0.18-0.91-0.32-1.96-0.41-3.15l-0.41-2.88c-0.18-1.28-0.32-2.42-0.41-3.42
			c-0.09-1-0.23-1.96-0.41-2.87v5.61v5.61c0.18,4.93,1,8.76,2.46,11.49c0.73,1.37,1.73,2.78,3.01,4.24L161.16,81.53z M156.91,116.28
			c1.09-4.65,2.14-8.53,3.15-11.63c0.36-1.19,0.78-2.33,1.23-3.42c-1.46,1.91-2.51,3.78-3.15,5.61
			C157.14,109.4,156.73,112.54,156.91,116.28z M159.24,99.87l-0.27,1.37c0.73-1.1,1.6-2.19,2.6-3.29
			C160.56,98.68,159.79,99.32,159.24,99.87z M164.98,92.89l1.78-2.87c0.27-0.36,0.55-0.69,0.82-0.96h-0.27
			c-1,0.27-1.87,0.55-2.6,0.82c-0.73,0.36-1.23,0.69-1.51,0.96c-1.09,1.28-2.1,3.15-3.01,5.61c0.46-0.27,1.03-0.66,1.71-1.16
			c0.68-0.5,1.12-0.8,1.3-0.89C163.94,93.85,164.53,93.35,164.98,92.89z M167.04,86.05c-0.64-0.36-1.23-0.73-1.78-1.09
			c0.27,0.45,0.59,0.82,0.96,1.09h0.68H167.04z M169.5,89.61c0,0.27-0.05,0.55-0.14,0.82c0.55-0.55,1.1-1.05,1.64-1.5h-0.41
			C170.23,89.1,169.87,89.33,169.5,89.61z"/>
	</g>
	<path class="st0" d="M119.3,70.12c0.08,0.34,0.12,0.7,0.25,1.03c3.25,8.15,0.74,8.03,9.73,3.96c1.41-0.55,2.81-1.09,4.22-1.64
		c2.83,0.98,4.02,2.7,2.52,5.62c-1.4,0.61-2.8,1.22-4.2,1.83c-0.11,0.02-0.24,0.03-0.34,0.08c-8.85,3.77-8.03,0.93-4.2,10.63
		c0.14,1.3,0.42,2.55,1.29,3.59c-0.61,2.77-2.02,4.28-5.06,3.22c-0.71-1.42-1.42-2.85-2.12-4.28c-3.3-9.57-1.16-8.6-10.7-4.55
		c-1.12,0.47-2.25,0.95-3.37,1.43c-3.16-0.82-3.92-2.78-2.68-5.68c1.25-0.53,2.5-1.06,3.75-1.59c9.8-3.97,8.99-1.27,4.92-11.52
		c-0.38-1.22-0.75-2.44-1.13-3.66c1.25-3.23,3.28-3.69,6-1.69C118.54,67.97,118.92,69.04,119.3,70.12z"/>
	<path class="st0" d="M91.54,74c-0.86-4.11-2.95-7.56-5.31-10.92c-0.5-0.45-1-0.9-1.47-1.38c-7.91-7.58-18.48-8.05-26.66-4.16
		c-11.83,5.61-16.5,19.33-10.83,32.08c0.22,0.32,0.46,0.62,0.66,0.95c4.74,7.72,11.63,11.8,20.7,11.83
		C83.46,102.47,94.59,88.55,91.54,74z M88.68,81.27c-1.52,14.66-16.59,23.06-29.69,17.45c-4.55-1.95-8.21-5.1-10.42-9.69
		c-4.37-7.27-3.15-17.46,2.87-24.13c5.93-6.59,14.78-8.89,22.91-5.98c0.19,0.07,0.37,0.21,0.56,0.32
		C83.94,62.04,89.71,71.3,88.68,81.27z"/>
	<path class="st1" d="M74.92,59.24c-2.13-0.04-4.19-0.71-6.32-0.63c-9.02,0.27-15.92,4.05-20.03,12.25c-2,3.99-1.91,8.33-1.17,12.62
		c0.32,1.86,0.78,3.7,1.17,5.55c2.22,4.59,5.87,7.74,10.42,9.69c13.1,5.61,28.17-2.79,29.69-17.45
		C89.71,71.3,83.94,62.04,74.92,59.24z M52.32,89.05c-0.93,0.44-1.35-0.63-1.69-1.4c-2.02-4.58-2.37-9.26-0.96-14.07
		c0.5-1.67,0.8-3.45,2.26-4.67c-0.26,1.98-1.07,3.77-1.46,5.71c-0.78,3.81-0.24,7.32,1.12,10.81c0.21,0.52,0.43,1.03,0.6,1.57
		C52.43,87.69,53.22,88.62,52.32,89.05z M73.36,97.15c-1.46,1-3.14,1.01-4.82,1c-2.95-0.09-5.78-0.79-8.58-1.59
		c-2.13-0.61-3.71-2.05-5.05-3.74c-0.24-0.3-0.74-0.72-0.23-1.16c0.44-0.37,0.72,0.15,0.95,0.4c4.27,4.72,9.89,4.93,15.64,4.66
		c0.6-0.04,1.03-0.4,1.55-0.6c0.39-0.16,0.91-0.5,1.19,0.02C74.31,96.71,73.69,96.91,73.36,97.15z M74.57,86.99
		c-2.08,1.68-2.8,1.66-4.82-0.22c-3.14-2.92-3.13-2.9-5.73,0.85c-0.46,0.66-0.73,1.77-1.96,1.47c-1.31-0.33-3.41-2.26-3.42-3.35
		c0.28-1.55,1.21-3.03,2.25-4.41c0.89-1.18,0.82-1.98-0.15-3.04c-1.22-1.34-1.9-3.02-2.42-4.75c-0.07-0.27-0.24-0.6-0.15-0.82
		c0.72-1.74,2.56-1.53,3.92-2.15c0.82-0.38,1.51-0.16,2.01,0.65c0.65,1.03,1.1,2.76,2.13,2.8c0.84,0.02,1.74-1.5,2.59-2.36
		c3.18-3.21,3.17-3.21,6.06,0.35c0.61,0.74,0.18,1.19-0.28,1.73c-1.08,1.27-2.09,2.62-3.26,3.82c-1.02,1.05-0.84,1.78,0.24,2.54
		c0.95,0.69,1.85,1.45,2.8,2.14C76.52,83.83,76.58,85.35,74.57,86.99z M76.57,65.16c-0.34,0.46-0.83,0.01-1.18-0.21
		c-3.8-2.33-7.84-3.06-12.21-1.98c-2.14,0.51-3.83,1.73-5.54,3.01c-0.4,0.29-0.86,1.05-1.39,0.45c-0.45-0.52,0.22-1.06,0.55-1.42
		c2.7-2.89,6.18-3.85,10.29-4.01c3.08,0.17,6.18,1.13,8.86,3.23C76.25,64.46,77,64.59,76.57,65.16z M80.9,91.9
		c-0.23,0.38-0.54,0.86-1.05,0.47c-0.41-0.32-0.23-0.79,0-1.22c0.6-1.07,1.28-2.12,1.74-3.25c2.57-6.25,1.95-12.36-0.93-18.35
		c-0.17-0.35-0.38-0.69-0.51-1.06c-0.16-0.46-0.9-0.99-0.11-1.4c0.62-0.32,1.01,0.32,1.3,0.78c2.31,3.69,3.45,7.74,3.48,12.08
		C84.99,84.42,83.18,88.25,80.9,91.9z"/>
	<path class="st2" d="M74.91,59.23c-2.12-0.03-4.18-0.7-6.31-0.64c-9.02,0.27-15.93,4.06-20.03,12.26c-2,3.99-1.91,8.32-1.17,12.62
		c0.32,1.86,0.78,3.7,1.17,5.56c-4.37-7.28-3.16-17.46,2.87-24.14c5.94-6.58,14.78-8.89,22.91-5.97
		C74.55,58.99,74.72,59.13,74.91,59.23z"/>
	<path class="st3" d="M58.64,85.75c0.27-1.54,1.2-3.04,2.24-4.41c0.89-1.18,0.82-1.98-0.14-3.04c-1.22-1.34-1.9-3.02-2.42-4.75
		c-0.08-0.27-0.25-0.6-0.16-0.81c0.72-1.74,2.56-1.53,3.92-2.16c0.82-0.38,1.52-0.15,2.02,0.65c0.65,1.03,1.1,2.76,2.13,2.8
		c0.84,0.03,1.74-1.5,2.59-2.36c3.19-3.22,3.17-3.21,6.06,0.35c0.61,0.75,0.18,1.2-0.27,1.73c-1.09,1.27-2.1,2.63-3.27,3.82
		c-1.02,1.04-0.83,1.78,0.24,2.55c0.95,0.69,1.86,1.44,2.8,2.14c2.13,1.57,2.19,3.09,0.18,4.73c-2.08,1.69-2.79,1.66-4.81-0.21
		c-3.15-2.92-3.13-2.9-5.74,0.85c-0.46,0.66-0.73,1.78-1.96,1.47C60.74,88.77,58.65,86.83,58.64,85.75z"/>
	<path class="st3" d="M84.83,79.96c0.16,4.47-1.66,8.28-3.93,11.95c-0.23,0.37-0.54,0.86-1.05,0.48c-0.42-0.32-0.23-0.8,0-1.22
		c0.59-1.08,1.28-2.12,1.74-3.25c2.56-6.25,1.94-12.36-0.93-18.35c-0.17-0.35-0.37-0.69-0.51-1.06c-0.17-0.46-0.9-0.99-0.12-1.4
		c0.62-0.32,1.02,0.31,1.31,0.78C83.67,71.57,84.8,75.62,84.83,79.96z"/>
	<path class="st3" d="M67.08,61c3.09,0.18,6.18,1.14,8.87,3.23c0.3,0.23,1.04,0.36,0.62,0.93c-0.34,0.46-0.83,0.02-1.19-0.21
		c-3.8-2.33-7.84-3.05-12.21-1.99c-2.14,0.52-3.83,1.74-5.53,3.01c-0.4,0.3-0.86,1.05-1.39,0.45c-0.45-0.52,0.22-1.06,0.55-1.42
		C59.5,62.12,62.99,61.16,67.08,61z"/>
	<path class="st3" d="M68.53,98.14c-2.95-0.08-5.78-0.79-8.58-1.59c-2.13-0.61-3.71-2.04-5.05-3.74c-0.24-0.31-0.74-0.72-0.23-1.15
		c0.44-0.37,0.72,0.14,0.95,0.4c4.28,4.72,9.89,4.93,15.65,4.66c0.6-0.03,1.03-0.39,1.54-0.6c0.39-0.16,0.91-0.5,1.2,0.03
		c0.3,0.56-0.32,0.77-0.65,0.99C71.9,98.14,70.21,98.16,68.53,98.14z"/>
	<path class="st3" d="M51.93,68.9c-0.25,1.98-1.06,3.78-1.46,5.72c-0.78,3.8-0.24,7.31,1.12,10.81c0.2,0.52,0.42,1.04,0.6,1.56
		c0.24,0.69,1.03,1.63,0.13,2.06c-0.92,0.44-1.35-0.64-1.69-1.4c-2.02-4.57-2.37-9.27-0.96-14.07C50.16,71.9,50.47,70.13,51.93,68.9
		z"/>
</g>
</svg>
